<mxfile host="app.diagrams.net" modified="2024-04-02T11:08:23.065Z" agent="Mozilla/5.0 (Windows NT 10.0; Win64; x64) AppleWebKit/537.36 (KHTML, like Gecko) Chrome/123.0.0.0 Safari/537.36" etag="JRkA90o-giI_slfoC-6F" version="24.2.1" type="device">
  <diagram name="Page-1" id="FVCsTzHkaJCtpPxNs4Dh">
    <mxGraphModel dx="1674" dy="738" grid="1" gridSize="10" guides="1" tooltips="1" connect="1" arrows="1" fold="1" page="1" pageScale="1" pageWidth="827" pageHeight="1169" math="0" shadow="0">
      <root>
        <mxCell id="0" />
        <mxCell id="1" parent="0" />
        <mxCell id="rmkTUI5uoalpC0IEJjh7-1" value="User" style="rounded=0;whiteSpace=wrap;html=1;" parent="1" vertex="1">
          <mxGeometry x="44" y="175" width="80" height="50" as="geometry" />
        </mxCell>
        <mxCell id="rmkTUI5uoalpC0IEJjh7-2" value="Login/Signup" style="rounded=0;whiteSpace=wrap;html=1;" parent="1" vertex="1">
          <mxGeometry x="184" y="175" width="110" height="50" as="geometry" />
        </mxCell>
        <mxCell id="rmkTUI5uoalpC0IEJjh7-3" value="Groups" style="rounded=0;whiteSpace=wrap;html=1;" parent="1" vertex="1">
          <mxGeometry x="394" y="170" width="260" height="60" as="geometry" />
        </mxCell>
        <mxCell id="rmkTUI5uoalpC0IEJjh7-4" value="Group Activities" style="rounded=0;whiteSpace=wrap;html=1;" parent="1" vertex="1">
          <mxGeometry x="314" y="305" width="120" height="60" as="geometry" />
        </mxCell>
        <mxCell id="rmkTUI5uoalpC0IEJjh7-5" value="General Library" style="rounded=0;whiteSpace=wrap;html=1;" parent="1" vertex="1">
          <mxGeometry x="484" y="305" width="120" height="60" as="geometry" />
        </mxCell>
        <mxCell id="rmkTUI5uoalpC0IEJjh7-6" value="Group Ranking System" style="rounded=0;whiteSpace=wrap;html=1;" parent="1" vertex="1">
          <mxGeometry x="544" y="415" width="120" height="60" as="geometry" />
        </mxCell>
        <mxCell id="rmkTUI5uoalpC0IEJjh7-8" value="" style="endArrow=none;html=1;rounded=0;entryX=0.25;entryY=1;entryDx=0;entryDy=0;exitX=0.75;exitY=0;exitDx=0;exitDy=0;" parent="1" source="rmkTUI5uoalpC0IEJjh7-4" target="rmkTUI5uoalpC0IEJjh7-3" edge="1">
          <mxGeometry width="50" height="50" relative="1" as="geometry">
            <mxPoint x="354" y="305" as="sourcePoint" />
            <mxPoint x="414" y="245" as="targetPoint" />
          </mxGeometry>
        </mxCell>
        <mxCell id="rmkTUI5uoalpC0IEJjh7-10" value="" style="endArrow=classic;html=1;rounded=0;entryX=0;entryY=0.5;entryDx=0;entryDy=0;exitX=1;exitY=0.5;exitDx=0;exitDy=0;" parent="1" source="rmkTUI5uoalpC0IEJjh7-1" target="rmkTUI5uoalpC0IEJjh7-2" edge="1">
          <mxGeometry width="50" height="50" relative="1" as="geometry">
            <mxPoint x="134" y="205" as="sourcePoint" />
            <mxPoint x="174" y="155" as="targetPoint" />
          </mxGeometry>
        </mxCell>
        <mxCell id="rmkTUI5uoalpC0IEJjh7-11" value="" style="endArrow=classic;html=1;rounded=0;entryX=0;entryY=0.5;entryDx=0;entryDy=0;exitX=1;exitY=0.5;exitDx=0;exitDy=0;" parent="1" source="rmkTUI5uoalpC0IEJjh7-2" target="rmkTUI5uoalpC0IEJjh7-3" edge="1">
          <mxGeometry width="50" height="50" relative="1" as="geometry">
            <mxPoint x="294" y="205" as="sourcePoint" />
            <mxPoint x="344" y="155" as="targetPoint" />
          </mxGeometry>
        </mxCell>
        <mxCell id="rmkTUI5uoalpC0IEJjh7-13" value="" style="endArrow=none;html=1;rounded=0;entryX=0.5;entryY=1;entryDx=0;entryDy=0;exitX=0.25;exitY=0;exitDx=0;exitDy=0;" parent="1" source="rmkTUI5uoalpC0IEJjh7-5" target="rmkTUI5uoalpC0IEJjh7-3" edge="1">
          <mxGeometry width="50" height="50" relative="1" as="geometry">
            <mxPoint x="499" y="305" as="sourcePoint" />
            <mxPoint x="549" y="255" as="targetPoint" />
          </mxGeometry>
        </mxCell>
        <mxCell id="rmkTUI5uoalpC0IEJjh7-14" value="" style="rhombus;whiteSpace=wrap;html=1;fillColor=#000000;" parent="1" vertex="1">
          <mxGeometry x="624" y="235" width="20" height="20" as="geometry" />
        </mxCell>
        <mxCell id="rmkTUI5uoalpC0IEJjh7-15" value="" style="endArrow=none;html=1;rounded=0;exitX=0.75;exitY=0;exitDx=0;exitDy=0;" parent="1" source="rmkTUI5uoalpC0IEJjh7-6" edge="1">
          <mxGeometry width="50" height="50" relative="1" as="geometry">
            <mxPoint x="584" y="305" as="sourcePoint" />
            <mxPoint x="634" y="255" as="targetPoint" />
          </mxGeometry>
        </mxCell>
        <mxCell id="rmkTUI5uoalpC0IEJjh7-16" value="" style="endArrow=none;html=1;rounded=0;exitX=0;exitY=0.5;exitDx=0;exitDy=0;entryX=0.75;entryY=1;entryDx=0;entryDy=0;" parent="1" source="rmkTUI5uoalpC0IEJjh7-6" target="rmkTUI5uoalpC0IEJjh7-4" edge="1">
          <mxGeometry width="50" height="50" relative="1" as="geometry">
            <mxPoint x="304" y="415" as="sourcePoint" />
            <mxPoint x="354" y="365" as="targetPoint" />
          </mxGeometry>
        </mxCell>
        <mxCell id="rmkTUI5uoalpC0IEJjh7-17" value="" style="endArrow=none;html=1;rounded=0;exitX=0.25;exitY=0;exitDx=0;exitDy=0;entryX=0.5;entryY=1;entryDx=0;entryDy=0;" parent="1" source="rmkTUI5uoalpC0IEJjh7-6" target="rmkTUI5uoalpC0IEJjh7-5" edge="1">
          <mxGeometry width="50" height="50" relative="1" as="geometry">
            <mxPoint x="464" y="415" as="sourcePoint" />
            <mxPoint x="514" y="365" as="targetPoint" />
          </mxGeometry>
        </mxCell>
        <mxCell id="rmkTUI5uoalpC0IEJjh7-19" value="Join/Create" style="text;html=1;align=center;verticalAlign=middle;whiteSpace=wrap;rounded=0;" parent="1" vertex="1">
          <mxGeometry x="314" y="175" width="60" height="30" as="geometry" />
        </mxCell>
        <mxCell id="rmkTUI5uoalpC0IEJjh7-20" value="Participate" style="text;html=1;align=center;verticalAlign=middle;whiteSpace=wrap;rounded=0;" parent="1" vertex="1">
          <mxGeometry x="364" y="255" width="60" height="30" as="geometry" />
        </mxCell>
        <mxCell id="rmkTUI5uoalpC0IEJjh7-21" value="Contribute/Usage" style="text;html=1;align=center;verticalAlign=middle;whiteSpace=wrap;rounded=0;" parent="1" vertex="1">
          <mxGeometry x="544" y="255" width="60" height="30" as="geometry" />
        </mxCell>
        <mxCell id="rmkTUI5uoalpC0IEJjh7-22" value="Admin" style="rounded=0;whiteSpace=wrap;html=1;" parent="1" vertex="1">
          <mxGeometry x="44" y="545" width="90" height="50" as="geometry" />
        </mxCell>
        <mxCell id="rmkTUI5uoalpC0IEJjh7-23" value="System Management" style="rounded=0;whiteSpace=wrap;html=1;" parent="1" vertex="1">
          <mxGeometry x="194" y="650" width="120" height="60" as="geometry" />
        </mxCell>
        <mxCell id="rmkTUI5uoalpC0IEJjh7-24" value="Security" style="rounded=0;whiteSpace=wrap;html=1;" parent="1" vertex="1">
          <mxGeometry x="194" y="505" width="120" height="60" as="geometry" />
        </mxCell>
        <mxCell id="rmkTUI5uoalpC0IEJjh7-25" value="" style="endArrow=none;html=1;rounded=0;entryX=0;entryY=0.5;entryDx=0;entryDy=0;" parent="1" target="rmkTUI5uoalpC0IEJjh7-24" edge="1">
          <mxGeometry width="50" height="50" relative="1" as="geometry">
            <mxPoint x="134" y="565" as="sourcePoint" />
            <mxPoint x="184" y="515" as="targetPoint" />
          </mxGeometry>
        </mxCell>
        <mxCell id="rmkTUI5uoalpC0IEJjh7-26" value="" style="endArrow=none;html=1;rounded=0;" parent="1" edge="1">
          <mxGeometry width="50" height="50" relative="1" as="geometry">
            <mxPoint x="134" y="565" as="sourcePoint" />
            <mxPoint x="194" y="675" as="targetPoint" />
          </mxGeometry>
        </mxCell>
        <mxCell id="9gSCed8HF-gUGdoE1sG1-1" value="Group List" style="rounded=0;whiteSpace=wrap;html=1;" parent="1" vertex="1">
          <mxGeometry x="664" y="295" width="120" height="60" as="geometry" />
        </mxCell>
        <mxCell id="9gSCed8HF-gUGdoE1sG1-2" value="" style="endArrow=none;html=1;rounded=0;entryX=0.5;entryY=0;entryDx=0;entryDy=0;" parent="1" target="9gSCed8HF-gUGdoE1sG1-1" edge="1">
          <mxGeometry width="50" height="50" relative="1" as="geometry">
            <mxPoint x="644" y="245" as="sourcePoint" />
            <mxPoint x="694" y="195" as="targetPoint" />
            <Array as="points">
              <mxPoint x="724" y="245" />
            </Array>
          </mxGeometry>
        </mxCell>
        <mxCell id="4VuC2S5LRCLd1yTLrPHI-1" value="&lt;h1 style=&quot;margin-top: 0px;&quot;&gt;Domain Model&amp;nbsp;&lt;/h1&gt;" style="text;html=1;whiteSpace=wrap;overflow=hidden;rounded=0;" vertex="1" parent="1">
          <mxGeometry x="324" y="30" width="180" height="120" as="geometry" />
        </mxCell>
      </root>
    </mxGraphModel>
  </diagram>
</mxfile>
